Coordinates
version=1
nRows=10
nColumns=40
inDegrees=yes

Units are S.I. units (second, meters, Newtons, ...)
Angles are in degrees.

endheader
time	pelvis_tilt	pelvis_list	pelvis_rotation	pelvis_tx	pelvis_ty	pelvis_tz	hip_flexion_r	hip_adduction_r	hip_rotation_r	knee_angle_r	knee_angle_r_beta	ankle_angle_r	subtalar_angle_r	mtp_angle_r	hip_flexion_l	hip_adduction_l	hip_rotation_l	knee_angle_l	knee_angle_l_beta	ankle_angle_l	subtalar_angle_l	mtp_angle_l	lumbar_extension	lumbar_bending	lumbar_rotation	arm_flex_r	arm_add_r	arm_rot_r	elbow_flex_r	pro_sup_r	wrist_flex_r	wrist_dev_r	arm_flex_l	arm_add_l	arm_rot_l	elbow_flex_l	pro_sup_l	wrist_flex_l	wrist_dev_l
      1.29000000	     -0.19405601	      1.06185963	      7.60015832	      0.44169271	      0.87963774	     -1.50897878	     28.40428485	     -6.74292307	    -22.11840624	    -20.26868590	     -0.35375530	      6.94223117	     -3.55593873	     12.69425694	     -4.71050478	      2.07211511	      5.41916879	    -31.29118788	     -0.54613426	      9.47601842	      1.32410910	     -7.34377724	     -5.17369405	     -2.82976756	    -12.93558667	    -13.38100234	     -7.26059473	    -16.71148219	     19.70368757	     89.95437384	      0.00000000	      0.00000000	      8.24822889	     16.44106924	     22.20939735	     63.16533715	     89.95437384	      0.00000000	      0.00000000
      1.30000000	      0.21518997	      0.85499350	      7.86613478	      0.45422221	      0.87915454	     -1.50810321	     27.57030943	     -6.23815364	    -22.06094181	    -20.15501335	     -0.35177134	      7.00895602	     -4.15775743	     12.23997511	     -5.71566251	      2.57814887	      4.78013625	    -31.61388094	     -0.55176631	      8.52823424	      1.58243978	     -7.60802129	     -5.30325667	     -2.43954818	    -13.28523541	    -13.34254262	     -7.24584925	    -17.58134582	     19.05584734	     89.95437384	      0.00000000	      0.00000000	      7.75923299	     16.40025438	     22.30046513	     63.83913744	     89.95437384	      0.00000000	      0.00000000
      1.31000000	      0.06507674	      1.01082495	      7.91012378	      0.46658311	      0.87766641	     -1.50713509	     27.53774682	     -6.19255444	    -21.62300829	    -20.62623434	     -0.35999570	      6.76315262	     -4.05263442	     11.96634178	     -6.06629244	      2.59847306	      4.51946160	    -32.15164104	     -0.56115200	      8.15614334	      1.56159304	     -7.45068119	     -4.80604485	     -2.52299317	    -13.21666006	    -13.87746400	     -7.29105727	    -17.53215364	     19.13134784	     89.95437384	      0.00000000	      0.00000000	      7.50405174	     16.27647741	     22.22789257	     63.98496092	     89.95437384	      0.00000000	      0.00000000
      1.32000000	      0.13021651	      0.72813143	      8.09932036	      0.47892771	      0.87647592	     -1.50595938	     27.18060376	     -5.47763083	    -20.63143272	    -20.93229945	     -0.36533755	      5.67014124	     -6.41555138	     10.01339697	     -6.39968091	      3.12118333	      3.92126147	    -32.95142171	     -0.57511080	      6.95390170	      2.44822196	     -9.04428502	     -4.55098589	     -2.10502222	    -13.53280056	    -13.78923532	     -7.35295464	    -17.86421244	     18.44950124	     89.95437384	      0.00000000	      0.00000000	      6.82321065	     16.24773437	     22.32010632	     64.59685113	     89.95437384	      0.00000000	      0.00000000
      1.33000000	      0.12585928	      0.71072575	      8.17039230	      0.49157868	      0.87511036	     -1.50486512	     26.94774417	     -5.28559715	    -20.50807036	    -21.74754168	     -0.37956621	      4.26636615	     -6.47434498	      9.87135518	     -6.71196501	      3.32225073	      3.46820583	    -33.76306424	     -0.58927664	      6.12333530	      2.85971087	     -8.82815913	     -4.19543263	     -1.96256414	    -13.59860324	    -14.00948562	     -7.43494939	    -17.82661144	     18.15622150	     89.95437384	      0.00000000	      0.00000000	      6.24747909	     16.18194265	     22.21860680	     64.91519082	     89.95437384	      0.00000000	      0.00000000
      1.34000000	      0.03464622	      0.55857230	      8.33540751	      0.50376760	      0.87388778	     -1.50374868	     26.87496725	     -4.97364124	    -20.14154866	    -22.66263176	     -0.39553754	      2.73349670	     -7.77472012	      9.58031407	     -6.73654733	      3.59256479	      2.63151795	    -34.79599300	     -0.60730464	      5.18863996	      3.73189021	     -8.79906631	     -3.77530518	     -1.68107463	    -13.79458606	    -14.04625948	     -7.46860140	    -18.11966000	     17.77767113	     89.95437384	      0.00000000	      0.00000000	      5.71841190	     15.97048467	     22.36331955	     65.04686134	     89.95437384	      0.00000000	      0.00000000
      1.35000000	      0.05700341	      0.27214427	      8.22143779	      0.51593501	      0.87299174	     -1.50206675	     27.02278902	     -4.54215791	    -19.58410104	    -24.20133122	     -0.42239291	      2.45048181	     -7.81974670	      9.18478817	     -6.79975401	      4.07124542	      2.23748951	    -35.89411218	     -0.62647044	      3.83784312	      4.08776724	     -8.47515110	     -3.47186289	     -1.23095765	    -13.61824483	    -14.10098971	     -7.56346253	    -17.95648802	     17.48208681	     89.95437384	      0.00000000	      0.00000000	      5.29497512	     15.76412778	     22.28809376	     64.94938335	     89.95437384	      0.00000000	      0.00000000
      1.36000000	      0.00020384	     -0.14805509	      8.15288179	      0.52788130	      0.87235264	     -1.50032576	     27.24944323	     -4.00903098	    -19.02373963	    -25.61287796	     -0.44702905	      1.58036280	     -7.86026469	      8.84504865	     -6.44414022	      4.70958720	      1.86524557	    -37.42171708	     -0.65313217	      2.05104748	      4.71444494	     -8.13920468	     -3.09007876	     -0.66007246	    -13.56241478	    -13.90370306	     -7.66496247	    -17.78282084	     16.85559988	     89.95437384	      0.00000000	      0.00000000	      4.78561360	     15.47509699	     22.36879292	     64.75963178	     89.95437384	      0.00000000	      0.00000000
      1.37000000	      0.16250024	     -0.40027983	      8.00698379	      0.54002230	      0.87229622	     -1.49887236	     27.08734534	     -3.55531812	    -18.19023404	    -26.92910798	     -0.47000160	      0.95187719	     -7.63168714	      8.55150922	     -6.34217185	      5.03397061	      1.21769235	    -38.93531890	     -0.67954951	      0.45485596	      4.90644512	     -7.78258617	     -3.01596240	     -0.18145249	    -13.36326370	    -13.89414234	     -7.76059892	    -17.59364516	     16.78065961	     89.95437384	      0.00000000	      0.00000000	      4.30564045	     15.13540452	     22.35614152	     64.48620194	     89.95437384	      0.00000000	      0.00000000
      1.38000000	      0.31909523	     -1.05864897	      8.04327298	      0.55245314	      0.87254083	     -1.49719173	     26.58688421	     -2.67217754	    -18.03502390	    -27.58266077	     -0.48140825	      0.63911069	     -8.32910595	      8.39248455	     -5.70524818	      6.15147295	      1.35444558	    -40.96731168	     -0.71501447	     -2.75304717	      6.01270555	     -7.34795093	     -2.79374011	      0.65126093	    -13.55056903	    -13.38919214	     -7.93547623	    -17.43324052	     15.94001090	     89.95437384	      0.00000000	      0.00000000	      3.54379997	     14.79434918	     22.54178356	     64.14562046	     89.95437384	      0.00000000	      0.00000000
